<?xml version="1.0" encoding="utf-8"?>
<!-- Generator: Adobe Illustrator 15.1.0, SVG Export Plug-In . SVG Version: 6.00 Build 0)  -->
<!DOCTYPE svg PUBLIC "-//W3C//DTD SVG 1.1//EN" "http://www.w3.org/Graphics/SVG/1.1/DTD/svg11.dtd">
<svg version="1.1" id="Layer_1" xmlns="http://www.w3.org/2000/svg" xmlns:xlink="http://www.w3.org/1999/xlink" x="0px" y="0px"
	 width="50px" height="50px" viewBox="25 25 50 50" enable-background="new 25 25 50 50" xml:space="preserve">
<g>
	<path fill="#62A09D" d="M48.679,31.326c-0.473-0.186-0.966-0.276-1.455-0.276c-1.09,0-2.158,0.447-2.928,1.279l-6.171,6.664h-3.992
		c-2.203,0-3.989,1.787-3.989,3.99v14.005c0,2.203,1.786,3.989,3.989,3.989h3.988l6.17,6.688c0.771,0.835,1.84,1.284,2.933,1.284
		c0.488,0,0.979-0.09,1.451-0.273c1.53-0.599,2.537-2.073,2.537-3.716V35.04C51.213,33.399,50.208,31.925,48.679,31.326z
		 M47.224,64.961l-7.355-7.973h-5.735V42.983h5.735l7.355-7.942V64.961z"/>
</g>
<g>
	<path fill="#62A09D" d="M64.861,50l4.335-4.335c0.778-0.779,0.778-2.042,0-2.821c-0.779-0.779-2.042-0.779-2.82,0l-4.336,4.335
		l-4.335-4.335c-0.778-0.779-2.041-0.779-2.82,0c-0.778,0.779-0.778,2.042,0,2.821L59.22,50l-4.335,4.335
		c-0.778,0.778-0.778,2.042,0,2.82c0.39,0.39,0.9,0.585,1.41,0.585c0.511,0,1.021-0.195,1.41-0.585l4.335-4.333l4.336,4.334
		c0.39,0.39,0.899,0.584,1.41,0.584c0.51,0,1.021-0.194,1.41-0.584c0.778-0.779,0.778-2.043,0-2.821L64.861,50z"/>
</g>
</svg>
