<?xml version="1.0" encoding="utf-8"?>
<!-- Generator: Adobe Illustrator 15.1.0, SVG Export Plug-In . SVG Version: 6.00 Build 0)  -->
<!DOCTYPE svg PUBLIC "-//W3C//DTD SVG 1.1//EN" "http://www.w3.org/Graphics/SVG/1.1/DTD/svg11.dtd">
<svg version="1.1" id="Layer_1" xmlns="http://www.w3.org/2000/svg" xmlns:xlink="http://www.w3.org/1999/xlink" x="0px" y="0px"
	 width="50px" height="50px" viewBox="25 25 50 50" enable-background="new 25 25 50 50" xml:space="preserve">
<g>
	<path fill="#62A09D" d="M48.679,31.326c-0.473-0.186-0.966-0.276-1.455-0.276c-1.09,0-2.158,0.447-2.928,1.279l-6.171,6.664h-3.992
		c-2.203,0-3.989,1.787-3.989,3.99v14.005c0,2.203,1.786,3.989,3.989,3.989h3.988l6.17,6.688c0.771,0.835,1.84,1.284,2.933,1.284
		c0.488,0,0.979-0.09,1.451-0.273c1.53-0.599,2.537-2.073,2.537-3.716V35.04C51.213,33.399,50.208,31.925,48.679,31.326z
		 M47.224,64.961l-7.355-7.973h-5.735V42.983h5.735l7.355-7.942V64.961z"/>
	<path fill="#62A09D" d="M67.456,36.84c-0.431-1.013-1.603-1.486-2.616-1.054c-1.014,0.431-1.486,1.603-1.054,2.617
		c1.571,3.691,2.368,7.615,2.368,11.659s-0.797,7.967-2.368,11.659c-0.432,1.015,0.04,2.187,1.054,2.617
		c0.255,0.108,0.52,0.159,0.779,0.159c0.777,0,1.514-0.455,1.837-1.214c1.783-4.188,2.688-8.638,2.688-13.222
		C70.145,45.477,69.24,41.029,67.456,36.84z"/>
	<path fill="#62A09D" d="M58.472,39.475c-1.029,0.394-1.545,1.547-1.151,2.576c0.981,2.564,1.479,5.259,1.479,8.011
		c0,2.753-0.497,5.447-1.479,8.011c-0.394,1.029,0.122,2.182,1.15,2.576c0.235,0.09,0.476,0.133,0.713,0.133
		c0.803,0,1.56-0.489,1.863-1.283c1.155-3.021,1.741-6.195,1.741-9.437c0-3.24-0.585-6.415-1.741-9.436
		C60.653,39.596,59.5,39.081,58.472,39.475z"/>
</g>
</svg>
